<?xml version="1.0" encoding="utf-8"?>
<!-- Generator: Adobe Illustrator 18.1.1, SVG Export Plug-In . SVG Version: 6.00 Build 0)  -->
<svg version="1.1" xmlns="http://www.w3.org/2000/svg" xmlns:xlink="http://www.w3.org/1999/xlink" x="0px" y="0px"
	 viewBox="0 0 1280 1000" enable-background="new 0 0 1280 1000" xml:space="preserve">
<g id="Layer_1">
</g>
<g id="Layer_8">
	<path fill="#F4EFEF" stroke="#F4EFEF" stroke-miterlimit="10" d="M712.7,126.7c4.5,4.5-1.3,19.1,0,25.3c1,4.8,11.4,11.1,11.2,16
		c-0.1,4.2-9,9.1-10.4,13c-7.1,19.9-4.7,63.7-0.8,84.4c8.1,42.9,51.5,120.5,64.8,162c6.1,19.2,16.6,58.2,19,78.2
		c3.1,25.8,4.8,105.6,4.8,105.6s-2.3,81.8-4.8,109.5c-1.8,20.2-12,59.7-14.7,79.8c-2.2,16.5-7.2,49.9-5.5,66.4
		c1.8,17.9,15.9,51.5,20.2,69c3.6,14.5,14.5,44,11.7,58.7c-1.8,9.5-321.6,16-321.9,3.4c-0.4-14.7,12.7-60.8,17.3-74.8
		c4.6-14.1,17.9-41.5,19.5-56.3c2.5-23.3-7.9-69.8-10.8-93c-2.8-21.8-10.3-65.2-12-87.1c-1.8-22.7-2.9-68.4-1.8-91.1
		c1.4-28.3,9-84.6,13.6-112.6c2.3-14,7.8-42,11.8-55.7c7.2-24.9,26.7-72.9,35.9-97.1c5.8-15.2,20.7-44.6,23.8-60.6
		c3.7-19.1,8.1-60,0.5-77.9c-1.8-4.3-12.7-8.4-13.5-13c-1.4-7.8,12.3-20.9,13.5-28.8c1-6.1-6.5-19.4-2.9-24.3
		C600.4,99.1,689.5,103.4,712.7,126.7z"/>
	<path fill="#F7931E" stroke="#F7931E" stroke-miterlimit="10" d="M472.5,159.2c0,0-33.9,34.3-47.5,41.9c-9.5,5.3-31.3,9.4-42.1,9.4
		c-14,0-42.5-5.8-55.6-12.2c-4.9-2.4-15.2-10.6-15.7-16.5c-0.8-8.4,18.1-26.4,18.1-26.4s17.7-10.7,24.1-13.3
		c7.2-3,22.6-6.3,30.3-6.8c8-0.5,32,3.2,32,3.2L472.5,159.2z"/>
	<path fill="#F7931E" stroke="#F7931E" stroke-miterlimit="10" d="M799.3,101.1c0,0,40.2,7.5,53,5.9c8.9-1.1,25-9.5,31.8-15.1
		c8.9-7.3,23.7-26.5,28.5-38c1.8-4.3,3.8-15.8,0.9-20.3c-4.1-6.6-25.9-10-25.9-10s-17.1,1.4-22.5,2.8c-6.2,1.6-17.7,7.2-22.9,10.9
		c-5.3,3.8-18.5,19.1-18.5,19.1L799.3,101.1z"/>
	<path fill="#F7931E" stroke="#F7931E" stroke-miterlimit="10" d="M582.1,88.5c0,0-35.8-3.3-47.2-7.3c-8-2.8-22.4-12.6-28.6-18.4
		c-8-7.5-21.5-25.1-25.9-34.7c-1.7-3.6-3.5-12.6-1.1-15.4c3.6-4,23-1.7,23-1.7s15.3,4.8,20.1,7.1c5.5,2.6,15.9,9.3,20.6,13.2
		c4.8,4,16.7,18.4,16.7,18.4L582.1,88.5z"/>
	<path fill="#F7931E" stroke="#F7931E" stroke-miterlimit="10" d="M694,78.3c0,0-3.4-24.5-2.4-32.6c0.7-5.7,5.4-16.4,8.5-21.2
		c4-6.2,14.4-17.2,20.6-21.2c2.3-1.5,8.4-3.7,10.8-2.4c3.5,2,4.9,15.3,4.9,15.3s-1,10.8-1.8,14.3c-0.9,4-4,11.7-6.1,15.3
		c-2.1,3.6-10.4,13.2-10.4,13.2L694,78.3z"/>
	<path fill="#F7931E" stroke="#F7931E" stroke-miterlimit="10" d="M811.1,178.6c0,0,52.6-27.8,71.3-31.5c13-2.6,39.6,1.3,52.1,5.8
		c16.1,5.7,46.4,24.5,58.8,37.5c4.7,4.9,13.1,19.1,11.4,26.4c-2.5,10.6-31.4,24.7-31.4,24.7s-24.6,5.8-32.9,6.4
		c-9.4,0.7-28.4-1.5-37.5-4.1c-9.3-2.7-35.3-17-35.3-17L811.1,178.6z"/>
	<rect x="290.8" y="261.2" fill="none" width="752.8" height="165.6"/>
</g>
<g id="Layer_2">
</g>
<g id="Layer_3">
</g>
<g id="Layer_4">
</g>
<g id="Layer_7">
	<path fill="#5C83BC" stroke="#5C83BC" stroke-miterlimit="10" d="M547,781.1"/>
</g>
<g id="Layer_6">
</g>
<g id="Layer_5">
	<g>
		<path fill="#E0BCAA" stroke="#E0BCAA" stroke-miterlimit="10" d="M619.4,688.3c11.2-9.3,19.8-10.6,25.6-10
			c5.3,0.6,8.2,2.7,18.9,5.6c6.9,1.8,12.6,2.8,16.6,3.3V705c0,0-6.9,25.3-2.2,31.6c4.2,5.6,27.5,5.9,27.5,5.9L695,761.7L662.6,795
			L638,782.8l-24.1-32.2l19.4-14l-12.8-16L625,705L619.4,688.3z"/>
		<path fill="#E0BCAA" stroke="#E0BCAA" stroke-miterlimit="10" d="M792.3,725.5l36.5-44.1c0.1-0.1,0.1-0.1,0.2-0.2l32-33.1
			c0.1-0.1,0.2-0.2,0.3-0.4l26.5-36.4c0-0.1,0.1-0.1,0.1-0.2l13.2-20.9c0-0.1,0.1-0.1,0.1-0.2l23.1-42.9c0.2-0.2,0.3-0.5,0.5-0.7
			l19.5-21.7c0.1-0.1,0.2-0.3,0.3-0.4l14.2-21.9c0-0.1,0.1-0.1,0.1-0.2l5.8-7.8c0.5-0.7,0.8-1.5,0.7-2.4l-0.7-8.8
			c-0.2-1.8-1.7-3.2-3.5-3.2l0,0c-1.2,0-2.4-0.7-3-1.7l-4.5-7.8c-0.3-0.3-0.6-0.7-0.9-1l-7.4-5.7c-0.6-0.5-1.4-0.7-2.1-0.7h-4.7
			c-1.4,0-2.7,0.9-3.2,2.2l-7.5,19.1c-0.1,0.1-0.1,0.2-0.2,0.4l-8.1,15.3c-0.4,0.8-1.1,1.4-2,1.7l-5.8,1.9c-1.6,0.5-3.4-0.2-4.2-1.8
			l-2.6-5.2c-0.3-0.6-0.4-1.4-0.3-2.1l1.8-11.8c0.2-1-0.1-2-0.8-2.8l-0.7-0.8c-1.9-2.3-5.6-1.2-6.1,1.7l-1,6.7c0,0.2,0,0.4,0,0.5
			v17.4l-1,20.9c0,0.2,0,0.4,0,0.6l0.9,7.2c0.1,0.9-0.1,1.8-0.7,2.6l-76.7,98.7c-0.1,0.1-0.2,0.3-0.4,0.4l-43,40.8
			c-0.1,0.1-0.2,0.2-0.3,0.3l-17.5,20.7c-0.2,0.2-0.3,0.3-0.5,0.5l-15.1,11.9c-0.1,0.1-0.2,0.2-0.3,0.2l-10.2,6.3
			c-0.3,0.2-0.5,0.4-0.8,0.7l-18.3,20.9c-2.5,2.8-7,0.3-6-3.3l1.7-5.6c0.5-1.7-0.4-3.5-2-4.2l-1.4-0.6c-3.1-1.3-6,2.1-4.3,5
			l14.6,24.9c0.1,0.3,0.3,0.7,0.4,1l12.7,55.3c0.8,3.4,5.6,3.7,6.7,0.4l14.6-42.2c0.3-0.4,0.5-0.9,0.8-1.3l40.5-41.7
			C792.2,725.6,792.2,725.6,792.3,725.5z"/>
		<path fill="#E0BCAA" stroke="#E0BCAA" stroke-miterlimit="10" d="M526.9,718.9l-36.5-44.1c-0.1-0.1-0.1-0.1-0.2-0.2l-32-33.1
			c-0.1-0.1-0.2-0.2-0.3-0.4l-26.5-36.4c0-0.1-0.1-0.1-0.1-0.2l-13.2-20.9c0-0.1-0.1-0.1-0.1-0.2L395,540.6
			c-0.2-0.2-0.3-0.5-0.5-0.7L375,518.2c-0.1-0.1-0.2-0.3-0.3-0.4l-14.2-21.9c0-0.1-0.1-0.1-0.1-0.2l-5.8-7.8
			c-0.5-0.7-0.8-1.5-0.7-2.4l0.7-8.8c0.2-1.8,1.7-3.2,3.5-3.2l0,0c1.2,0,2.4-0.7,3-1.7l4.5-7.8c0.3-0.3,0.6-0.7,0.9-1l7.4-5.7
			c0.6-0.5,1.4-0.7,2.1-0.7h4.7c1.4,0,2.7,0.9,3.2,2.2l7.5,19.1c0.1,0.1,0.1,0.2,0.2,0.4l8.1,15.3c0.4,0.8,1.1,1.4,2,1.7l5.8,1.9
			c1.6,0.5,3.4-0.2,4.2-1.8l2.6-5.2c0.3-0.6,0.4-1.4,0.3-2.1l-1.8-11.8c-0.2-1,0.1-2,0.8-2.8l0.7-0.8c1.9-2.3,5.6-1.2,6.1,1.7l1,6.7
			c0,0.2,0,0.4,0,0.5V499l1,20.9c0,0.2,0,0.4,0,0.6l-0.9,7.2c-0.1,0.9,0.1,1.8,0.7,2.6l76.7,98.7c0.1,0.1,0.2,0.3,0.4,0.4l43,40.8
			c0.1,0.1,0.2,0.2,0.3,0.3l17.5,20.7c0.2,0.2,0.3,0.3,0.5,0.5l15.1,11.9c0.1,0.1,0.2,0.2,0.3,0.2l10.2,6.3c0.3,0.2,0.5,0.4,0.8,0.7
			l18.3,20.9c2.5,2.8,7,0.3,6-3.3l-1.7-5.6c-0.5-1.7,0.4-3.5,2-4.2l1.4-0.6c3.1-1.3,6,2.1,4.3,5l-14.6,24.9c-0.1,0.3-0.3,0.7-0.4,1
			L589.7,804c-0.8,3.4-5.6,3.7-6.7,0.4l-14.6-42.2c-0.3-0.4-0.5-0.9-0.8-1.3l-40.5-41.7C527,719,527,719,526.9,718.9z"/>
		<path fill="#DBB3A9" stroke="#CCA193" stroke-miterlimit="10" d="M616,697.2c0.8,7.4-0.4,9.5,1.1,8.9c3.6-1.4,16,14.5,14.2,7.2
			c-2.8-11.5,7.6,6.2,12.1,8.7s9.3,4.3,14.5,4.3c4.1,0,7.4-0.8,10-2.1c6-2.9,9.1-8.2,11.8-12.1c1-1.5,2-2.8,3-3.8
			c3.7-3.3,4.7-8.5,6.7-18.9c1.5-7.6,2.2-11.5,1.1-16.7c-1.6-7.6,4.9-36.8-5.7-36.6c-22.9,0.6-11.9-21.1-30.6-19.2
			c-4.1,0.4-26.7,20.5-26.7,20.5c-7.2,3.4-3.5,14.3-7,19.7c-3.5,5.4-7.6,11.7-7.8,20C612.6,683.1,614.5,684.3,616,697.2z"/>
		<polygon fill="#5C83BC" stroke="#5C83BC" stroke-miterlimit="10" points="586.2,960.5 576.5,979.1 576.5,995 576.5,1000 
			640,1000.5 768,1000.5 755.9,960.5 733.7,911.3 		"/>
		<path fill="#FF9966" stroke="#FF9966" stroke-miterlimit="10" d="M581.4,826l5.1,42c0,0,1.7,32.6,0,43.3
			c-1.4,8.6-10.7,33.3-10.7,33.3l-5.5,18.9l16.7,8.9h27h31l18.7-6.7l62.2-3.3l23.4-16.6l-8.9-32.3c0,0-13.9-20.8-15.6-28.9
			c-2.2-11,4.4-44.4,4.4-44.4l6.7-30l-11.4-33.6l-12.1-47L692,756.4c0,0-15.6,10.4-21.6,10.5C659,767,629.2,748,629.2,748
			l-39.3,33.3L581.4,826z"/>
		<path fill="#2D130A" stroke="#2D130A" stroke-miterlimit="10" d="M658.4,603.4c5.6,0.2,16,5.4,20.6,8.5c4.7,3.2,13,11.4,16,16.3
			c4.2,6.7,8.7,22,10.6,29.6c2.4,9.9,4.3,30.1,5.2,40.2c1.8,18.8,3.8,56.7,4.7,75.6c0.8,17.1,1.4,51.4,0,68.4
			c-0.6,6.9,0.7,23-4.7,27.5c-2.1,1.7-8.6,1.6-10.8,0c-3-2.1-2.6-11-5-13.7c-4.6-5.3-19.3-9.1-25-13.3c-4.5-3.3-10.6-13.5-11.8-18.9
			c-1.3-5.8,2-17.8,4.1-23.3c1.7-4.6,22.3-46.7,22.7-59.9c0.6-24.3,1.7-87.7,1.8-83.3c0.2,5.6-8.8-15.6-13-20.8
			c-4.7-5.9-10.3-7.9-17.9-8c-8.2-0.1-11.7,6.1-15.8,13.2c-3.6,6.3-4.6,18.1-4.1,25.3c0.7,10.1-3.3,30.3-3.3,30.3l10.4,43.4
			c0,0,0.6,20.3,0,28.8c-0.6,8.5-9.9,23.6-13.9,31.1c-3.9,7.2-15.3,19.9-17.6,27.8c-1.7,5.8-0.6,18,0,24c0.6,6.3,10.8,22,5.2,24.9
			c-5.6,2.8-14.1-13.1-16.7-18.9c-2.3-5.2-6.5-15.6-7.8-21.1c-1.2-5.2-2.5-15.8-2.2-21.1c-4.8,0-3.9-25.1,0-34.4
			c6.5-15.8-4-30.4,5.5-41c0,0,0.8-28.7,7.1-59c2.2-10.5,2.9-34.8,6.7-45.2c2.5-6.8,17.2-20,23-24.2
			C637.8,608,651.5,603.2,658.4,603.4z"/>
	</g>
	<path fill="#2D130A" stroke="#2D130A" stroke-miterlimit="10" d="M353.7,942.3"/>
</g>
</svg>
